<svg width="24" height="24" viewBox="0 0 24 24" fill="none" xmlns="http://www.w3.org/2000/svg">
<path fill-rule="evenodd" clip-rule="evenodd" d="M9.7 6.6C10.418 6.6 11 6.01797 11 5.3C11 4.58203 10.418 4 9.7 4H3.3C2.58203 4 2 4.58203 2 5.3C2 6.01797 2.58203 6.6 3.3 6.6H9.7ZM20.7 11C21.418 11 22 11.582 22 12.3C22 13.018 21.418 13.6 20.7 13.6H3.3C2.58203 13.6 2 13.018 2 12.3C2 11.582 2.58203 11 3.3 11H20.7ZM20.7 18C21.418 18 22 18.582 22 19.3C22 20.018 21.418 20.6 20.7 20.6H14.3C13.582 20.6 13 20.018 13 19.3C13 18.582 13.582 18 14.3 18H20.7Z" fill="white"/>
</svg>
