<svg width="20" height="20" viewBox="0 0 20 20" fill="none" xmlns="http://www.w3.org/2000/svg">
<path fill-rule="evenodd" clip-rule="evenodd" d="M3.66052 16.4818C7.24033 20.0616 13.0443 20.0616 16.6241 16.4818C20.2039 12.902 20.2039 7.09799 16.6241 3.51819C13.0443 -0.0616162 7.24033 -0.0616165 3.66052 3.51819C0.0807166 7.09799 0.0807166 12.902 3.66052 16.4818ZM11.7132 7.25418L10.1423 8.82501L8.57151 7.25418C8.24704 6.92971 7.72098 6.92971 7.39651 7.25418C7.07204 7.57864 7.07204 8.10471 7.39651 8.42918L8.96734 10L7.39651 11.5708C7.07204 11.8953 7.07204 12.4214 7.39651 12.7458C7.72098 13.0703 8.24704 13.0703 8.57151 12.7458L10.1423 11.175L11.7132 12.7458C12.0376 13.0703 12.5637 13.0703 12.8882 12.7458C13.2126 12.4214 13.2126 11.8953 12.8882 11.5708L11.3173 10L12.8882 8.42918C13.2126 8.10471 13.2126 7.57864 12.8882 7.25418C12.5637 6.92971 12.0376 6.92971 11.7132 7.25418Z" fill="#AAAEC1"/>
</svg>
