<svg width="29" height="29" viewBox="0 0 29 29" fill="none" xmlns="http://www.w3.org/2000/svg">
<path fill-rule="evenodd" clip-rule="evenodd" d="M13.7753 1.0835L25.6426 6.18619C26.4102 6.51622 26.9072 7.26902 26.9072 8.10152V23.8502C26.9072 25.9121 25.2286 27.5836 23.1579 27.5836H21.5418C20.2749 27.5836 19.0255 27.2899 17.8924 26.7257L13.7951 24.6858L10.018 26.6559C8.84971 27.2652 7.55048 27.5836 6.2316 27.5836H4.96269C2.892 27.5836 1.21338 25.9121 1.21338 23.8502V8.08807C1.21338 7.26859 1.69518 6.52501 2.44501 6.18725L13.7753 1.0835ZM15.607 23.3782L18.7801 24.9579C19.6376 25.3848 20.5831 25.6071 21.5418 25.6071H23.1579C24.1323 25.6071 24.9223 24.8205 24.9223 23.8502V8.10152C24.9223 8.0577 24.8961 8.01808 24.8557 8.00071L13.7939 3.24439L3.26313 7.98803C3.22367 8.0058 3.19831 8.04494 3.19831 8.08807V23.8502C3.19831 24.8205 3.98825 25.6071 4.96269 25.6071H6.2316C7.22967 25.6071 8.21287 25.3662 9.097 24.9051L11.9867 23.3979L10.8038 22.4444C8.4019 20.5083 6.84115 17.7254 6.44568 14.6735L5.96487 10.9631C5.87216 10.2477 6.29148 9.56436 6.97308 9.32003L13.7721 6.88281L21.0831 9.30941C21.8182 9.55342 22.2578 10.3023 22.1106 11.0599L21.3122 15.1673C20.7745 17.9337 19.2737 20.4226 17.0742 22.1955L15.607 23.3782ZM13.7846 22.3042L15.8253 20.6593C17.6616 19.1791 18.9145 17.1013 19.3634 14.7917L20.0883 11.0626L13.7971 8.97449L7.97883 11.0601L8.41429 14.4206C8.74445 16.9685 10.0475 19.2918 12.0528 20.9082L13.7846 22.3042Z" fill="white"/>
<path fill-rule="evenodd" clip-rule="evenodd" d="M17.5517 13.0635C17.9231 13.4333 17.9231 14.0328 17.5517 14.4026L13.6845 18.2534L11.3026 16.1452C10.91 15.7977 10.8747 15.1992 11.2236 14.8084C11.5725 14.4175 12.1736 14.3823 12.5661 14.7297L13.6077 15.6516L16.2069 13.0635C16.5783 12.6937 17.1804 12.6937 17.5517 13.0635Z" fill="white"/>
</svg>
