<svg width="56" height="56" viewBox="0 0 56 56" fill="none" xmlns="http://www.w3.org/2000/svg">
<rect width="56" height="56" rx="28" fill="#0BAEB9"/>
<path fill-rule="evenodd" clip-rule="evenodd" d="M27 20C23.134 20 20 23.134 20 27C20 30.866 23.134 34 27 34C30.866 34 34 30.866 34 27C34 23.134 30.866 20 27 20ZM18 27C18 22.0294 22.0294 18 27 18C31.9706 18 36 22.0294 36 27C36 31.9706 31.9706 36 27 36C22.0294 36 18 31.9706 18 27Z" fill="white"/>
<path fill-rule="evenodd" clip-rule="evenodd" d="M31.9413 31.9413C32.3319 31.5508 32.965 31.5508 33.3555 31.9413L37.7055 36.2913C38.0961 36.6819 38.0961 37.315 37.7055 37.7055C37.315 38.0961 36.6819 38.0961 36.2913 37.7055L31.9413 33.3555C31.5508 32.965 31.5508 32.3319 31.9413 31.9413Z" fill="white"/>
</svg>
